<svg xmlns="http://www.w3.org/2000/svg" viewBox="0 0 160 190" role="img" aria-labelledby="title desc">
  <title id="title">AIECC logo</title>
  <desc id="desc">Orange emergency coordination shield with lion, medical cross, route and people.</desc>
  <defs>
    <linearGradient id="orange" x1="0" x2="1" y1="0" y2="1">
      <stop offset="0" stop-color="#ff9d16"/>
      <stop offset="1" stop-color="#f26a00"/>
    </linearGradient>
  </defs>
  <path fill="url(#orange)" d="M80 5c40 0 72 31 72 70 0 57-58 95-72 109C66 170 8 132 8 75 8 36 40 5 80 5z"/>
  <path fill="#fff" d="M89 22c13 1 25 8 32 20-7-4-14-6-22-7 8 6 14 14 17 24-8-9-18-15-30-17 11 11 16 24 14 40-4-21-16-35-36-43 9 0 18 2 25 7-5-8-13-13-23-15 7-6 14-9 23-9z"/>
  <path fill="#fff" d="M72 54h18v19h19v18H90v19H72V91H53V73h19z"/>
  <path fill="none" stroke="#fff" stroke-linecap="round" stroke-width="12" d="M44 40C23 59 23 93 44 112M118 55c18 23 14 56-9 76"/>
  <path fill="none" stroke="#fff" stroke-linecap="round" stroke-linejoin="round" stroke-width="9" d="M54 126c19-17 51-15 57-31 3-8-5-14-20-13M99 80l13 14 14-13"/>
  <circle cx="37" cy="141" r="10" fill="#fff"/>
  <circle cx="80" cy="151" r="10" fill="#fff"/>
  <circle cx="123" cy="141" r="10" fill="#fff"/>
  <path fill="none" stroke="#fff" stroke-linecap="round" stroke-width="10" d="M25 168c0-16 24-16 24 0M68 178c0-16 24-16 24 0M111 168c0-16 24-16 24 0"/>
</svg>
